<?xml version="1.0" encoding="UTF-8"?>
<svg id="Layer_2" data-name="Layer 2" xmlns="http://www.w3.org/2000/svg" viewBox="0 0 101.44 42.08">
  <defs>
    <style>
      .cls-1 {
        fill: #fff;
      }
    </style>
  </defs>
  <g id="Layer_1-2" data-name="Layer 1">
    <g>
      <path class="cls-1" d="m87.55,8.51l-13.9,19.23L87.55,0l13.89,27.74-13.89-19.23Zm-39.44,19.23L34.22,0l-13.9,27.74,13.9-19.23,13.89,19.23Zm-36.62-4.26h-4.21l3.64-5.24L0,0l6.02,18.24L0,27.74h13.95L27.84,0,11.49,23.48Zm46.1-9.61L53.33,0v27.74l4.26-13.87Zm14.5-5.58L67.32,0h-8.65l6.18,4.27,2.31,4.02-3.21,5.58,3.21,5.58-2.31,4.01-5.25,4.27h7.71l4.77-8.29-3.21-5.58,3.21-5.58Z"/>
      <path class="cls-1" d="m16.99,38.15c.26.15.41.4.41.74,0,.28-.08.49-.22.64-.14.16-.33.25-.52.3h0c.33.08.57.22.72.4.15.19.22.43.22.69,0,.36-.12.64-.37.84-.25.2-.64.31-1.17.31-.17,0-.42,0-.66-.02-.24,0-.49-.02-.67-.04v-4.04c.16-.01.36-.03.57-.04.2,0,.41-.01.6-.01.45,0,.83.07,1.1.23m-1.43.2v1.32h.27c.19,0,.41-.04.52-.1.05-.03.1-.07.14-.16.04-.09.06-.22.06-.41,0-.24-.06-.41-.2-.51-.14-.1-.34-.14-.59-.14-.08,0-.15,0-.21.01m0,3.29s.05,0,.06,0c.03,0,.06,0,.12,0h.12c.1,0,.23,0,.34-.02.12-.02.22-.04.27-.07.06-.03.12-.09.18-.19.05-.1.09-.25.09-.49,0-.53-.32-.81-.92-.81h-.26v1.57Z"/>
      <polygon class="cls-1" points="21.41 42.03 20.58 42.03 20.58 40.46 19.25 37.95 20.2 37.95 21.19 39.95 22.24 37.95 22.74 37.95 21.41 40.46 21.41 42.03"/>
      <path class="cls-1" d="m30.59,37.93c.2.02.39.05.5.08l-.15.58c-.11-.03-.33-.08-.57-.12-.24-.03-.47-.06-.63-.06-.17,0-.29,0-.39.04-.11.03-.21.06-.3.14-.25.17-.32.67-.32,1.38,0,1.09.32,1.67,1.07,1.67.21,0,.45-.02.67-.05.22-.03.44-.08.63-.15v.34c-.21.1-.47.17-.72.22-.26.05-.53.08-.77.08-.64,0-1.08-.22-1.36-.59-.28-.38-.4-.9-.4-1.54,0-.51.13-.92.34-1.22.21-.31.51-.52.82-.65.32-.13.66-.19.96-.19.19,0,.42.01.62.03"/>
      <polygon class="cls-1" points="35.98 42.03 35.98 40.19 34.13 40.19 34.13 42.03 33.3 42.03 33.3 37.95 34.13 37.95 34.13 39.73 35.98 39.73 35.98 37.95 36.81 37.95 36.81 42.03 35.98 42.03"/>
      <polygon class="cls-1" points="40.08 38.38 40.08 39.71 41.49 39.73 41.46 40.1 40.08 40.13 40.08 41.59 41.75 41.62 41.71 42.03 39.25 42.03 39.25 37.95 41.62 37.95 41.58 38.36 40.08 38.38"/>
      <polygon class="cls-1" points="44.74 38.38 44.74 39.83 46.23 39.84 46.19 40.22 44.74 40.25 44.74 42.03 43.91 42.03 43.91 37.95 46.32 37.95 46.28 38.36 44.74 38.38"/>
      <path class="cls-1" d="m54.02,38l-.12.61c-.16-.05-.35-.1-.55-.14-.19-.03-.39-.06-.53-.06-.15,0-.34.01-.45.07-.11.06-.15.21-.15.41s.12.34.31.44c.09.05.2.1.32.14.24.09.5.18.73.31.24.12.43.31.54.58.06.13.09.3.09.49,0,.3-.15.61-.43.85-.28.24-.68.4-1.16.4-.27,0-.48-.03-.68-.08-.19-.05-.37-.12-.55-.21l.2-.61c.12.08.33.17.56.25.22.07.47.13.66.13.22,0,.38-.02.5-.07.12-.05.21-.25.21-.55,0-.21-.12-.34-.31-.45-.09-.05-.2-.1-.32-.14-.24-.08-.49-.18-.73-.3-.24-.13-.43-.31-.54-.56-.06-.13-.08-.28-.08-.47,0-.24.13-.52.38-.74.25-.22.61-.38,1.08-.38.38,0,.72.04,1.04.1"/>
      <polygon class="cls-1" points="59.03 42.03 59.03 40.19 57.19 40.19 57.19 42.03 56.36 42.03 56.36 37.95 57.19 37.95 57.19 39.73 59.03 39.73 59.03 37.95 59.87 37.95 59.87 42.03 59.03 42.03"/>
      <path class="cls-1" d="m64.87,42.03l-.48-1.38-1.54.02-.5,1.36h-.52l1.62-4.05.8-.14,1.51,4.19h-.89Zm-.61-1.76l-.61-1.76-.64,1.76h1.26Z"/>
      <polygon class="cls-1" points="70.42 42.03 70.42 40.19 68.57 40.19 68.57 42.03 67.74 42.03 67.74 37.95 68.57 37.95 68.57 39.73 70.42 39.73 70.42 37.95 71.25 37.95 71.25 42.03 70.42 42.03"/>
      <polygon class="cls-1" points="74.52 38.38 74.52 39.71 75.93 39.73 75.89 40.1 74.52 40.13 74.52 41.59 76.19 41.62 76.15 42.03 73.69 42.03 73.69 37.95 76.06 37.95 76.02 38.36 74.52 38.38"/>
      <polygon class="cls-1" points="79.18 38.38 79.18 39.71 80.59 39.73 80.55 40.1 79.18 40.13 79.18 41.59 80.84 41.62 80.8 42.03 78.34 42.03 78.34 37.95 80.72 37.95 80.67 38.36 79.18 38.38"/>
      <path class="cls-1" d="m86.25,40.77v-.62c-.01-.16-.02-.34-.02-.49,0-.08,0-.15,0-.21v-1.51h.48v4.1h-.37l-2.88-2.87h-.01c0,.24.01.46.02.66,0,.09,0,.17,0,.26,0,.18,0,.32.01.43v1.5h-.49v-4.11h.36l2.88,2.86h0Z"/>
    </g>
  </g>
</svg>